<?xml version="1.0" standalone="no"?>
<!DOCTYPE svg PUBLIC "-//W3C//DTD SVG 20010904//EN"
 "http://www.w3.org/TR/2001/REC-SVG-20010904/DTD/svg10.dtd">
<svg version="1.0" xmlns="http://www.w3.org/2000/svg"
 width="512.000000pt" height="512.000000pt" viewBox="0 0 512.000000 512.000000"
 preserveAspectRatio="xMidYMid meet">

<g transform="translate(0.000000,512.000000) scale(0.100000,-0.100000)"
fill="#000000" stroke="none">
<path d="M0 2560 l0 -2560 2560 0 2560 0 0 2560 0 2560 -2560 0 -2560 0 0
-2560z m3235 386 c50 -9 200 -45 335 -81 364 -95 395 -100 610 -99 152 0 203
4 287 22 86 19 216 58 287 87 57 24 -88 -135 -199 -218 -246 -183 -560 -263
-1172 -298 -220 -13 -405 -4 -561 28 -90 17 -90 26 -2 37 90 11 286 62 414
106 199 69 246 99 246 159 0 47 -8 57 -55 76 -195 82 -504 122 -735 96 -244
-28 -472 -103 -663 -218 l-59 -36 156 -70 c86 -38 155 -72 152 -74 -2 -2 -57
3 -122 11 -400 52 -850 38 -1267 -39 -182 -33 -315 -68 -586 -152 -31 -9 95
69 164 101 164 78 369 127 742 176 423 55 505 75 889 220 143 54 312 112 375
129 99 26 146 35 294 55 66 9 385 -3 470 -18z m1669 -308 c-60 -116 -193 -265
-314 -350 -206 -146 -480 -229 -760 -232 l-135 -1 -3 91 -3 91 168 6 c190 7
308 28 473 84 187 63 402 185 530 301 30 27 56 49 58 47 2 -2 -4 -18 -14 -37z
m-3051 -267 l27 -11 0 -128 c0 -71 3 -169 6 -219 l7 -90 236 194 c130 107 246
199 259 204 19 7 158 -4 200 -17 17 -5 -650 -552 -698 -572 -34 -14 -154 -12
-169 3 -3 4 -7 118 -10 254 -2 137 -7 254 -11 261 -10 15 -148 36 -351 51
-282 21 -688 -1 -948 -51 -64 -12 -79 -6 -24 9 151 43 502 101 723 120 141 13
717 7 753 -8z m1113 -111 l31 -11 -43 -150 c-49 -170 -61 -223 -48 -218 5 2
118 77 251 165 144 97 262 169 294 179 61 20 153 25 170 8 7 -7 14 -81 18
-200 l6 -188 100 -7 c452 -29 997 138 1205 370 l52 57 -16 -39 c-27 -65 -104
-163 -169 -216 -223 -181 -631 -280 -1155 -280 -211 0 -212 0 -222 23 -5 12
-12 84 -16 160 -3 75 -8 137 -10 137 -2 0 -111 -71 -241 -158 -151 -100 -255
-163 -286 -171 -50 -14 -181 -11 -197 5 -5 5 10 83 35 184 24 96 43 175 42
177 -1 1 -99 -77 -217 -173 -118 -97 -233 -185 -255 -197 -32 -17 -57 -22
-125 -22 -47 0 -93 5 -102 10 -14 8 38 54 304 270 176 143 339 271 362 283 36
21 50 23 121 19 44 -3 94 -10 111 -17z"/>
</g>
</svg>
